<?xml version="1.0" encoding="utf-8" standalone="no"?>
<!DOCTYPE svg PUBLIC "-//W3C//DTD SVG 1.1//EN"
  "http://www.w3.org/Graphics/SVG/1.1/DTD/svg11.dtd">
<svg xmlns:xlink="http://www.w3.org/1999/xlink" width="648pt" height="648pt" viewBox="0 0 648 648" xmlns="http://www.w3.org/2000/svg" version="1.1">
 <metadata>
  <rdf:RDF xmlns:dc="http://purl.org/dc/elements/1.1/" xmlns:cc="http://creativecommons.org/ns#" xmlns:rdf="http://www.w3.org/1999/02/22-rdf-syntax-ns#">
   <cc:Work>
    <dc:type rdf:resource="http://purl.org/dc/dcmitype/StillImage"/>
    <dc:date>2024-10-22T16:47:24.940194</dc:date>
    <dc:format>image/svg+xml</dc:format>
    <dc:creator>
     <cc:Agent>
      <dc:title>Matplotlib v3.7.1, https://matplotlib.org/</dc:title>
     </cc:Agent>
    </dc:creator>
   </cc:Work>
  </rdf:RDF>
 </metadata>
 <defs>
  <style type="text/css">*{stroke-linejoin: round; stroke-linecap: butt}</style>
 </defs>
 <g id="figure_1">
  <g id="patch_1">
   <path d="M 0 648 
L 648 648 
L 648 0 
L 0 0 
L 0 648 
z
" style="fill: none"/>
  </g>
  <g id="axes_1">
   <g id="PatchCollection_1">
    <path d="M 573.02798 327.24 
L 452.56399 119.936376 
L 211.63601 119.936376 
L 91.17202 327.24 
L 211.63601 534.543624 
L 452.56399 534.543624 
z
" clip-path="url(#p0de7441166)" style="fill: #17becf; stroke: #17becf"/>
    <path d="M 564.611282 327.24 
L 448.355641 127.178424 
L 215.844359 127.178424 
L 99.588718 327.24 
L 215.844359 527.301576 
L 448.355641 527.301576 
z
" clip-path="url(#p0de7441166)" style="fill: #7f7f7f; stroke: #7f7f7f"/>
    <path d="M 531.996578 327.24 
L 432.048289 155.24136 
L 232.151711 155.24136 
L 132.203422 327.24 
L 232.151711 499.23864 
L 432.048289 499.23864 
z
" clip-path="url(#p0de7441166)" style="fill: #17becf; stroke: #17becf"/>
    <path d="M 523.57988 327.24 
L 427.83994 162.483408 
L 236.36006 162.483408 
L 140.62012 327.24 
L 236.36006 491.996592 
L 427.83994 491.996592 
z
" clip-path="url(#p0de7441166)" style="fill: #7f7f7f; stroke: #7f7f7f"/>
    <path d="M 332.1 383.8185 
C 347.202227 383.8185 361.68794 377.857032 372.366827 367.247041 
C 383.045714 356.63705 389.045893 342.244794 389.045893 327.24 
C 389.045893 312.235206 383.045714 297.84295 372.366827 287.232959 
C 361.68794 276.622968 347.202227 270.6615 332.1 270.6615 
C 316.997773 270.6615 302.51206 276.622968 291.833173 287.232959 
C 281.154286 297.84295 275.154107 312.235206 275.154107 327.24 
C 275.154107 342.244794 281.154286 356.63705 291.833173 367.247041 
C 302.51206 377.857032 316.997773 383.8185 332.1 383.8185 
z
" clip-path="url(#p0de7441166)" style="fill: #17becf; stroke: #17becf"/>
    <path d="M 332.1 377.481708 
C 345.510778 377.481708 358.37409 372.187925 367.856942 362.766252 
C 377.339794 353.34458 382.667953 340.564257 382.667953 327.24 
C 382.667953 313.915743 377.339794 301.13542 367.856942 291.713748 
C 358.37409 282.292075 345.510778 276.998292 332.1 276.998292 
C 318.689222 276.998292 305.82591 282.292075 296.343058 291.713748 
C 286.860206 301.13542 281.532047 313.915743 281.532047 327.24 
C 281.532047 340.564257 286.860206 353.34458 296.343058 362.766252 
C 305.82591 372.187925 318.689222 377.481708 332.1 377.481708 
z
" clip-path="url(#p0de7441166)" style="fill: #7f7f7f; stroke: #7f7f7f"/>
    <path d="M 332.1 376.259256 
C 345.184475 376.259256 357.734805 371.094278 366.986925 361.901848 
C 376.239046 352.709419 381.437563 340.240059 381.437563 327.24 
C 381.437563 314.239941 376.239046 301.770581 366.986925 292.578152 
C 357.734805 283.385722 345.184475 278.220744 332.1 278.220744 
C 319.015525 278.220744 306.465195 283.385722 297.213075 292.578152 
C 287.960954 301.770581 282.762437 314.239941 282.762437 327.24 
C 282.762437 340.240059 287.960954 352.709419 297.213075 361.901848 
C 306.465195 371.094278 319.015525 376.259256 332.1 376.259256 
z
" clip-path="url(#p0de7441166)" style="fill: #9467bd; stroke: #9467bd"/>
    <path d="M 383.783786 298.95075 
C 384.14624 298.95075 384.493897 298.807675 384.75019 298.553035 
C 385.006483 298.298395 385.150488 297.952981 385.150488 297.592866 
C 385.150488 297.232751 385.006483 296.887337 384.75019 296.632697 
C 384.493897 296.378057 384.14624 296.234982 383.783786 296.234982 
C 383.421333 296.234982 383.073676 296.378057 382.817382 296.632697 
C 382.561089 296.887337 382.417085 297.232751 382.417085 297.592866 
C 382.417085 297.952981 382.561089 298.298395 382.817382 298.553035 
C 383.073676 298.807675 383.421333 298.95075 383.783786 298.95075 
z
" clip-path="url(#p0de7441166)" style="fill: #ff7f0e; stroke: #ff7f0e"/>
    <path d="M 332.1 327.24 
L 332.1 327.24 
L 332.1 327.24 
L 332.1 327.24 
L 332.1 327.24 
L 332.1 327.24 
z
" clip-path="url(#p0de7441166)" style="fill: #ffffff; stroke: #ffffff"/>
    <path d="M 332.1 327.24 
L 332.1 327.24 
L 332.1 327.24 
L 332.1 327.24 
L 332.1 327.24 
L 332.1 327.24 
z
" clip-path="url(#p0de7441166)" style="fill: #ffffff; stroke: #ffffff"/>
    <path d="M 332.1 327.24 
L 332.1 327.24 
L 332.1 327.24 
L 332.1 327.24 
L 332.1 327.24 
L 332.1 327.24 
z
" clip-path="url(#p0de7441166)" style="fill: #ffffff; stroke: #ffffff"/>
    <path d="M 332.1 327.24 
L 332.1 327.24 
L 332.1 327.24 
L 332.1 327.24 
L 332.1 327.24 
L 332.1 327.24 
z
" clip-path="url(#p0de7441166)" style="fill: #ffffff; stroke: #ffffff"/>
    <path d="M 391.790057 281.099296 
C 406.892284 281.099296 421.377997 275.137828 432.056884 264.527837 
C 442.735771 253.917846 448.73595 239.52559 448.73595 224.520796 
C 448.73595 209.516003 442.735771 195.123746 432.056884 184.513755 
C 421.377997 173.903764 406.892284 167.942296 391.790057 167.942296 
C 376.68783 167.942296 362.202117 173.903764 351.52323 184.513755 
C 340.844343 195.123746 334.844164 209.516003 334.844164 224.520796 
C 334.844164 239.52559 340.844343 253.917846 351.52323 264.527837 
C 362.202117 275.137828 376.68783 281.099296 391.790057 281.099296 
z
" clip-path="url(#p0de7441166)" style="fill: #17becf; stroke: #17becf"/>
    <path d="M 391.790057 274.762504 
C 405.200835 274.762504 418.064148 269.468721 427.547 260.047049 
C 437.029851 250.625376 442.35801 237.845053 442.35801 224.520796 
C 442.35801 211.196539 437.029851 198.416216 427.547 188.994544 
C 418.064148 179.572871 405.200835 174.279088 391.790057 174.279088 
C 378.379279 174.279088 365.515967 179.572871 356.033115 188.994544 
C 346.550263 198.416216 341.222104 211.196539 341.222104 224.520796 
C 341.222104 237.845053 346.550263 250.625376 356.033115 260.047049 
C 365.515967 269.468721 378.379279 274.762504 391.790057 274.762504 
z
" clip-path="url(#p0de7441166)" style="fill: #7f7f7f; stroke: #7f7f7f"/>
    <path d="M 391.790057 273.540052 
C 404.874532 273.540052 417.424862 268.375074 426.676982 259.182644 
C 435.929103 249.990215 441.12762 237.520855 441.12762 224.520796 
C 441.12762 211.520737 435.929103 199.051377 426.676982 189.858948 
C 417.424862 180.666518 404.874532 175.50154 391.790057 175.50154 
C 378.705583 175.50154 366.155253 180.666518 356.903132 189.858948 
C 347.651011 199.051377 342.452494 211.520737 342.452494 224.520796 
C 342.452494 237.520855 347.651011 249.990215 356.903132 259.182644 
C 366.155253 268.375074 378.705583 273.540052 391.790057 273.540052 
z
" clip-path="url(#p0de7441166)" style="fill: #9467bd; stroke: #9467bd"/>
    <path d="M 443.473843 196.231546 
C 443.836297 196.231546 444.183954 196.088471 444.440247 195.833831 
C 444.69654 195.579191 444.840545 195.233777 444.840545 194.873662 
C 444.840545 194.513547 444.69654 194.168133 444.440247 193.913493 
C 444.183954 193.658853 443.836297 193.515778 443.473843 193.515778 
C 443.11139 193.515778 442.763733 193.658853 442.507439 193.913493 
C 442.251146 194.168133 442.107142 194.513547 442.107142 194.873662 
C 442.107142 195.233777 442.251146 195.579191 442.507439 195.833831 
C 442.763733 196.088471 443.11139 196.231546 443.473843 196.231546 
z
" clip-path="url(#p0de7441166)" style="fill: #ff7f0e; stroke: #ff7f0e"/>
    <path d="M 332.1 327.24 
L 332.1 327.24 
L 332.1 327.24 
L 332.1 327.24 
L 332.1 327.24 
L 332.1 327.24 
z
" clip-path="url(#p0de7441166)" style="fill: #ffffff; stroke: #ffffff"/>
    <path d="M 332.1 327.24 
L 332.1 327.24 
L 332.1 327.24 
L 332.1 327.24 
L 332.1 327.24 
L 332.1 327.24 
z
" clip-path="url(#p0de7441166)" style="fill: #ffffff; stroke: #ffffff"/>
    <path d="M 332.1 327.24 
L 332.1 327.24 
L 332.1 327.24 
L 332.1 327.24 
L 332.1 327.24 
L 332.1 327.24 
z
" clip-path="url(#p0de7441166)" style="fill: #ffffff; stroke: #ffffff"/>
    <path d="M 332.1 327.24 
L 332.1 327.24 
L 332.1 327.24 
L 332.1 327.24 
L 332.1 327.24 
L 332.1 327.24 
z
" clip-path="url(#p0de7441166)" style="fill: #ffffff; stroke: #ffffff"/>
    <path d="M 451.480114 383.8185 
C 466.582342 383.8185 481.068054 377.857032 491.746941 367.247041 
C 502.425829 356.63705 508.426007 342.244794 508.426007 327.24 
C 508.426007 312.235206 502.425829 297.84295 491.746941 287.232959 
C 481.068054 276.622968 466.582342 270.6615 451.480114 270.6615 
C 436.377887 270.6615 421.892175 276.622968 411.213287 287.232959 
C 400.5344 297.84295 394.534221 312.235206 394.534221 327.24 
C 394.534221 342.244794 400.5344 356.63705 411.213287 367.247041 
C 421.892175 377.857032 436.377887 383.8185 451.480114 383.8185 
z
" clip-path="url(#p0de7441166)" style="fill: #17becf; stroke: #17becf"/>
    <path d="M 451.480114 377.481708 
C 464.890892 377.481708 477.754205 372.187925 487.237057 362.766252 
C 496.719909 353.34458 502.048067 340.564257 502.048067 327.24 
C 502.048067 313.915743 496.719909 301.13542 487.237057 291.713748 
C 477.754205 282.292075 464.890892 276.998292 451.480114 276.998292 
C 438.069336 276.998292 425.206024 282.292075 415.723172 291.713748 
C 406.24032 301.13542 400.912161 313.915743 400.912161 327.24 
C 400.912161 340.564257 406.24032 353.34458 415.723172 362.766252 
C 425.206024 372.187925 438.069336 377.481708 451.480114 377.481708 
z
" clip-path="url(#p0de7441166)" style="fill: #7f7f7f; stroke: #7f7f7f"/>
    <path d="M 451.480114 376.259256 
C 464.564589 376.259256 477.114919 371.094278 486.36704 361.901848 
C 495.61916 352.709419 500.817677 340.240059 500.817677 327.24 
C 500.817677 314.239941 495.61916 301.770581 486.36704 292.578152 
C 477.114919 283.385722 464.564589 278.220744 451.480114 278.220744 
C 438.39564 278.220744 425.84531 283.385722 416.593189 292.578152 
C 407.341068 301.770581 402.142551 314.239941 402.142551 327.24 
C 402.142551 340.240059 407.341068 352.709419 416.593189 361.901848 
C 425.84531 371.094278 438.39564 376.259256 451.480114 376.259256 
z
" clip-path="url(#p0de7441166)" style="fill: #9467bd; stroke: #9467bd"/>
    <path d="M 503.1639 298.95075 
C 503.526354 298.95075 503.874011 298.807675 504.130304 298.553035 
C 504.386598 298.298395 504.530602 297.952981 504.530602 297.592866 
C 504.530602 297.232751 504.386598 296.887337 504.130304 296.632697 
C 503.874011 296.378057 503.526354 296.234982 503.1639 296.234982 
C 502.801447 296.234982 502.45379 296.378057 502.197497 296.632697 
C 501.941203 296.887337 501.797199 297.232751 501.797199 297.592866 
C 501.797199 297.952981 501.941203 298.298395 502.197497 298.553035 
C 502.45379 298.807675 502.801447 298.95075 503.1639 298.95075 
z
" clip-path="url(#p0de7441166)" style="fill: #ff7f0e; stroke: #ff7f0e"/>
    <path d="M 332.1 327.24 
L 332.1 327.24 
L 332.1 327.24 
L 332.1 327.24 
L 332.1 327.24 
L 332.1 327.24 
z
" clip-path="url(#p0de7441166)" style="fill: #ffffff; stroke: #ffffff"/>
    <path d="M 332.1 327.24 
L 332.1 327.24 
L 332.1 327.24 
L 332.1 327.24 
L 332.1 327.24 
L 332.1 327.24 
z
" clip-path="url(#p0de7441166)" style="fill: #ffffff; stroke: #ffffff"/>
    <path d="M 332.1 327.24 
L 332.1 327.24 
L 332.1 327.24 
L 332.1 327.24 
L 332.1 327.24 
L 332.1 327.24 
z
" clip-path="url(#p0de7441166)" style="fill: #ffffff; stroke: #ffffff"/>
    <path d="M 332.1 327.24 
L 332.1 327.24 
L 332.1 327.24 
L 332.1 327.24 
L 332.1 327.24 
L 332.1 327.24 
z
" clip-path="url(#p0de7441166)" style="fill: #ffffff; stroke: #ffffff"/>
    <path d="M 391.790057 486.537704 
C 406.892284 486.537704 421.377997 480.576236 432.056884 469.966245 
C 442.735771 459.356254 448.73595 444.963997 448.73595 429.959204 
C 448.73595 414.95441 442.735771 400.562154 432.056884 389.952163 
C 421.377997 379.342172 406.892284 373.380704 391.790057 373.380704 
C 376.68783 373.380704 362.202117 379.342172 351.52323 389.952163 
C 340.844343 400.562154 334.844164 414.95441 334.844164 429.959204 
C 334.844164 444.963997 340.844343 459.356254 351.52323 469.966245 
C 362.202117 480.576236 376.68783 486.537704 391.790057 486.537704 
z
" clip-path="url(#p0de7441166)" style="fill: #17becf; stroke: #17becf"/>
    <path d="M 391.790057 480.200912 
C 405.200835 480.200912 418.064148 474.907129 427.547 465.485456 
C 437.029851 456.063784 442.35801 443.283461 442.35801 429.959204 
C 442.35801 416.634947 437.029851 403.854624 427.547 394.432951 
C 418.064148 385.011279 405.200835 379.717496 391.790057 379.717496 
C 378.379279 379.717496 365.515967 385.011279 356.033115 394.432951 
C 346.550263 403.854624 341.222104 416.634947 341.222104 429.959204 
C 341.222104 443.283461 346.550263 456.063784 356.033115 465.485456 
C 365.515967 474.907129 378.379279 480.200912 391.790057 480.200912 
z
" clip-path="url(#p0de7441166)" style="fill: #7f7f7f; stroke: #7f7f7f"/>
    <path d="M 391.790057 478.97846 
C 404.874532 478.97846 417.424862 473.813482 426.676982 464.621052 
C 435.929103 455.428623 441.12762 442.959263 441.12762 429.959204 
C 441.12762 416.959145 435.929103 404.489785 426.676982 395.297356 
C 417.424862 386.104926 404.874532 380.939948 391.790057 380.939948 
C 378.705583 380.939948 366.155253 386.104926 356.903132 395.297356 
C 347.651011 404.489785 342.452494 416.959145 342.452494 429.959204 
C 342.452494 442.959263 347.651011 455.428623 356.903132 464.621052 
C 366.155253 473.813482 378.705583 478.97846 391.790057 478.97846 
z
" clip-path="url(#p0de7441166)" style="fill: #9467bd; stroke: #9467bd"/>
    <path d="M 443.473843 401.669954 
C 443.836297 401.669954 444.183954 401.526879 444.440247 401.272239 
C 444.69654 401.017599 444.840545 400.672185 444.840545 400.31207 
C 444.840545 399.951955 444.69654 399.606541 444.440247 399.351901 
C 444.183954 399.097261 443.836297 398.954186 443.473843 398.954186 
C 443.11139 398.954186 442.763733 399.097261 442.507439 399.351901 
C 442.251146 399.606541 442.107142 399.951955 442.107142 400.31207 
C 442.107142 400.672185 442.251146 401.017599 442.507439 401.272239 
C 442.763733 401.526879 443.11139 401.669954 443.473843 401.669954 
z
" clip-path="url(#p0de7441166)" style="fill: #ff7f0e; stroke: #ff7f0e"/>
    <path d="M 332.1 327.24 
L 332.1 327.24 
L 332.1 327.24 
L 332.1 327.24 
L 332.1 327.24 
L 332.1 327.24 
z
" clip-path="url(#p0de7441166)" style="fill: #ffffff; stroke: #ffffff"/>
    <path d="M 332.1 327.24 
L 332.1 327.24 
L 332.1 327.24 
L 332.1 327.24 
L 332.1 327.24 
L 332.1 327.24 
z
" clip-path="url(#p0de7441166)" style="fill: #ffffff; stroke: #ffffff"/>
    <path d="M 332.1 327.24 
L 332.1 327.24 
L 332.1 327.24 
L 332.1 327.24 
L 332.1 327.24 
L 332.1 327.24 
z
" clip-path="url(#p0de7441166)" style="fill: #ffffff; stroke: #ffffff"/>
    <path d="M 332.1 327.24 
L 332.1 327.24 
L 332.1 327.24 
L 332.1 327.24 
L 332.1 327.24 
L 332.1 327.24 
z
" clip-path="url(#p0de7441166)" style="fill: #ffffff; stroke: #ffffff"/>
    <path d="M 272.409943 486.537704 
C 287.51217 486.537704 301.997883 480.576236 312.67677 469.966245 
C 323.355657 459.356254 329.355836 444.963997 329.355836 429.959204 
C 329.355836 414.95441 323.355657 400.562154 312.67677 389.952163 
C 301.997883 379.342172 287.51217 373.380704 272.409943 373.380704 
C 257.307716 373.380704 242.822003 379.342172 232.143116 389.952163 
C 221.464229 400.562154 215.46405 414.95441 215.46405 429.959204 
C 215.46405 444.963997 221.464229 459.356254 232.143116 469.966245 
C 242.822003 480.576236 257.307716 486.537704 272.409943 486.537704 
z
" clip-path="url(#p0de7441166)" style="fill: #17becf; stroke: #17becf"/>
    <path d="M 272.409943 480.200912 
C 285.820721 480.200912 298.684033 474.907129 308.166885 465.485456 
C 317.649737 456.063784 322.977896 443.283461 322.977896 429.959204 
C 322.977896 416.634947 317.649737 403.854624 308.166885 394.432951 
C 298.684033 385.011279 285.820721 379.717496 272.409943 379.717496 
C 258.999165 379.717496 246.135852 385.011279 236.653 394.432951 
C 227.170149 403.854624 221.84199 416.634947 221.84199 429.959204 
C 221.84199 443.283461 227.170149 456.063784 236.653 465.485456 
C 246.135852 474.907129 258.999165 480.200912 272.409943 480.200912 
z
" clip-path="url(#p0de7441166)" style="fill: #7f7f7f; stroke: #7f7f7f"/>
    <path d="M 272.409943 478.97846 
C 285.494417 478.97846 298.044747 473.813482 307.296868 464.621052 
C 316.548989 455.428623 321.747506 442.959263 321.747506 429.959204 
C 321.747506 416.959145 316.548989 404.489785 307.296868 395.297356 
C 298.044747 386.104926 285.494417 380.939948 272.409943 380.939948 
C 259.325468 380.939948 246.775138 386.104926 237.523018 395.297356 
C 228.270897 404.489785 223.07238 416.959145 223.07238 429.959204 
C 223.07238 442.959263 228.270897 455.428623 237.523018 464.621052 
C 246.775138 473.813482 259.325468 478.97846 272.409943 478.97846 
z
" clip-path="url(#p0de7441166)" style="fill: #9467bd; stroke: #9467bd"/>
    <path d="M 324.093729 401.669954 
C 324.456182 401.669954 324.80384 401.526879 325.060133 401.272239 
C 325.316426 401.017599 325.46043 400.672185 325.46043 400.31207 
C 325.46043 399.951955 325.316426 399.606541 325.060133 399.351901 
C 324.80384 399.097261 324.456182 398.954186 324.093729 398.954186 
C 323.731276 398.954186 323.383618 399.097261 323.127325 399.351901 
C 322.871032 399.606541 322.727028 399.951955 322.727028 400.31207 
C 322.727028 400.672185 322.871032 401.017599 323.127325 401.272239 
C 323.383618 401.526879 323.731276 401.669954 324.093729 401.669954 
z
" clip-path="url(#p0de7441166)" style="fill: #ff7f0e; stroke: #ff7f0e"/>
    <path d="M 332.1 327.24 
L 332.1 327.24 
L 332.1 327.24 
L 332.1 327.24 
L 332.1 327.24 
L 332.1 327.24 
z
" clip-path="url(#p0de7441166)" style="fill: #ffffff; stroke: #ffffff"/>
    <path d="M 332.1 327.24 
L 332.1 327.24 
L 332.1 327.24 
L 332.1 327.24 
L 332.1 327.24 
L 332.1 327.24 
z
" clip-path="url(#p0de7441166)" style="fill: #ffffff; stroke: #ffffff"/>
    <path d="M 332.1 327.24 
L 332.1 327.24 
L 332.1 327.24 
L 332.1 327.24 
L 332.1 327.24 
L 332.1 327.24 
z
" clip-path="url(#p0de7441166)" style="fill: #ffffff; stroke: #ffffff"/>
    <path d="M 332.1 327.24 
L 332.1 327.24 
L 332.1 327.24 
L 332.1 327.24 
L 332.1 327.24 
L 332.1 327.24 
z
" clip-path="url(#p0de7441166)" style="fill: #ffffff; stroke: #ffffff"/>
    <path d="M 212.719886 383.8185 
C 227.822113 383.8185 242.307825 377.857032 252.986713 367.247041 
C 263.6656 356.63705 269.665779 342.244794 269.665779 327.24 
C 269.665779 312.235206 263.6656 297.84295 252.986713 287.232959 
C 242.307825 276.622968 227.822113 270.6615 212.719886 270.6615 
C 197.617658 270.6615 183.131946 276.622968 172.453059 287.232959 
C 161.774171 297.84295 155.773993 312.235206 155.773993 327.24 
C 155.773993 342.244794 161.774171 356.63705 172.453059 367.247041 
C 183.131946 377.857032 197.617658 383.8185 212.719886 383.8185 
z
" clip-path="url(#p0de7441166)" style="fill: #17becf; stroke: #17becf"/>
    <path d="M 212.719886 377.481708 
C 226.130664 377.481708 238.993976 372.187925 248.476828 362.766252 
C 257.95968 353.34458 263.287839 340.564257 263.287839 327.24 
C 263.287839 313.915743 257.95968 301.13542 248.476828 291.713748 
C 238.993976 282.292075 226.130664 276.998292 212.719886 276.998292 
C 199.309108 276.998292 186.445795 282.292075 176.962943 291.713748 
C 167.480091 301.13542 162.151933 313.915743 162.151933 327.24 
C 162.151933 340.564257 167.480091 353.34458 176.962943 362.766252 
C 186.445795 372.187925 199.309108 377.481708 212.719886 377.481708 
z
" clip-path="url(#p0de7441166)" style="fill: #7f7f7f; stroke: #7f7f7f"/>
    <path d="M 212.719886 376.259256 
C 225.80436 376.259256 238.35469 371.094278 247.606811 361.901848 
C 256.858932 352.709419 262.057449 340.240059 262.057449 327.24 
C 262.057449 314.239941 256.858932 301.770581 247.606811 292.578152 
C 238.35469 283.385722 225.80436 278.220744 212.719886 278.220744 
C 199.635411 278.220744 187.085081 283.385722 177.83296 292.578152 
C 168.58084 301.770581 163.382323 314.239941 163.382323 327.24 
C 163.382323 340.240059 168.58084 352.709419 177.83296 361.901848 
C 187.085081 371.094278 199.635411 376.259256 212.719886 376.259256 
z
" clip-path="url(#p0de7441166)" style="fill: #9467bd; stroke: #9467bd"/>
    <path d="M 264.403672 298.95075 
C 264.766125 298.95075 265.113782 298.807675 265.370076 298.553035 
C 265.626369 298.298395 265.770373 297.952981 265.770373 297.592866 
C 265.770373 297.232751 265.626369 296.887337 265.370076 296.632697 
C 265.113782 296.378057 264.766125 296.234982 264.403672 296.234982 
C 264.041218 296.234982 263.693561 296.378057 263.437268 296.632697 
C 263.180975 296.887337 263.03697 297.232751 263.03697 297.592866 
C 263.03697 297.952981 263.180975 298.298395 263.437268 298.553035 
C 263.693561 298.807675 264.041218 298.95075 264.403672 298.95075 
z
" clip-path="url(#p0de7441166)" style="fill: #ff7f0e; stroke: #ff7f0e"/>
    <path d="M 332.1 327.24 
L 332.1 327.24 
L 332.1 327.24 
L 332.1 327.24 
L 332.1 327.24 
L 332.1 327.24 
z
" clip-path="url(#p0de7441166)" style="fill: #ffffff; stroke: #ffffff"/>
    <path d="M 332.1 327.24 
L 332.1 327.24 
L 332.1 327.24 
L 332.1 327.24 
L 332.1 327.24 
L 332.1 327.24 
z
" clip-path="url(#p0de7441166)" style="fill: #ffffff; stroke: #ffffff"/>
    <path d="M 332.1 327.24 
L 332.1 327.24 
L 332.1 327.24 
L 332.1 327.24 
L 332.1 327.24 
L 332.1 327.24 
z
" clip-path="url(#p0de7441166)" style="fill: #ffffff; stroke: #ffffff"/>
    <path d="M 332.1 327.24 
L 332.1 327.24 
L 332.1 327.24 
L 332.1 327.24 
L 332.1 327.24 
L 332.1 327.24 
z
" clip-path="url(#p0de7441166)" style="fill: #ffffff; stroke: #ffffff"/>
    <path d="M 272.409943 281.099296 
C 287.51217 281.099296 301.997883 275.137828 312.67677 264.527837 
C 323.355657 253.917846 329.355836 239.52559 329.355836 224.520796 
C 329.355836 209.516003 323.355657 195.123746 312.67677 184.513755 
C 301.997883 173.903764 287.51217 167.942296 272.409943 167.942296 
C 257.307716 167.942296 242.822003 173.903764 232.143116 184.513755 
C 221.464229 195.123746 215.46405 209.516003 215.46405 224.520796 
C 215.46405 239.52559 221.464229 253.917846 232.143116 264.527837 
C 242.822003 275.137828 257.307716 281.099296 272.409943 281.099296 
z
" clip-path="url(#p0de7441166)" style="fill: #17becf; stroke: #17becf"/>
    <path d="M 272.409943 274.762504 
C 285.820721 274.762504 298.684033 269.468721 308.166885 260.047049 
C 317.649737 250.625376 322.977896 237.845053 322.977896 224.520796 
C 322.977896 211.196539 317.649737 198.416216 308.166885 188.994544 
C 298.684033 179.572871 285.820721 174.279088 272.409943 174.279088 
C 258.999165 174.279088 246.135852 179.572871 236.653 188.994544 
C 227.170149 198.416216 221.84199 211.196539 221.84199 224.520796 
C 221.84199 237.845053 227.170149 250.625376 236.653 260.047049 
C 246.135852 269.468721 258.999165 274.762504 272.409943 274.762504 
z
" clip-path="url(#p0de7441166)" style="fill: #7f7f7f; stroke: #7f7f7f"/>
    <path d="M 272.409943 273.540052 
C 285.494417 273.540052 298.044747 268.375074 307.296868 259.182644 
C 316.548989 249.990215 321.747506 237.520855 321.747506 224.520796 
C 321.747506 211.520737 316.548989 199.051377 307.296868 189.858948 
C 298.044747 180.666518 285.494417 175.50154 272.409943 175.50154 
C 259.325468 175.50154 246.775138 180.666518 237.523018 189.858948 
C 228.270897 199.051377 223.07238 211.520737 223.07238 224.520796 
C 223.07238 237.520855 228.270897 249.990215 237.523018 259.182644 
C 246.775138 268.375074 259.325468 273.540052 272.409943 273.540052 
z
" clip-path="url(#p0de7441166)" style="fill: #9467bd; stroke: #9467bd"/>
    <path d="M 324.093729 196.231546 
C 324.456182 196.231546 324.80384 196.088471 325.060133 195.833831 
C 325.316426 195.579191 325.46043 195.233777 325.46043 194.873662 
C 325.46043 194.513547 325.316426 194.168133 325.060133 193.913493 
C 324.80384 193.658853 324.456182 193.515778 324.093729 193.515778 
C 323.731276 193.515778 323.383618 193.658853 323.127325 193.913493 
C 322.871032 194.168133 322.727028 194.513547 322.727028 194.873662 
C 322.727028 195.233777 322.871032 195.579191 323.127325 195.833831 
C 323.383618 196.088471 323.731276 196.231546 324.093729 196.231546 
z
" clip-path="url(#p0de7441166)" style="fill: #ff7f0e; stroke: #ff7f0e"/>
   </g>
  </g>
 </g>
 <defs>
  <clipPath id="p0de7441166">
   <rect x="81" y="77.76" width="502.2" height="498.96"/>
  </clipPath>
 </defs>
</svg>
